# xmcd
#
# Track frame offsets:
#	182
#	16487
#	32237
#	49057
#	62120
#	77910
#	94720
#	111190
#	132067
#	147192
#	159927
#
# Disc length: 2383 seconds
#
# Revision: 1
# Processed by: cddbd v1.5.1PL2 Copyright (c) Steve Scherf et al.
# Submitted via: audiograbber 1.83.01
#
DISCID=8c094d0b
DTITLE=Jonny Hill - Jonny Hill - Meine Liebe lebt
DYEAR=1993
DGENRE=Country
TTITLE0=Eine and're Frau (In A Different Light)
TTITLE1=Ich kenn das Lied viel zu gut (This Ain't My First Rodeo)
TTITLE2=Was zum Teufel ist schon Liebe
TTITLE3=Blutrot (Sundown)
TTITLE4=War's das schon (Is There Life Out Of There)
TTITLE5=Meine Liebe lebt (What I Did For Love)
TTITLE6=Sie ist nicht so wie die (She's Not That King Of Girl)
TTITLE7=Bobby
TTITLE8=Dieser Weg führt nach haus (Countryroads)
TTITLE9=Ich sag ich hab dich lieb mit einem Lied (I'll Have To Say I Love You I
TTITLE9=n A Song)
TTITLE10=Was kommt dann
EXTD=
EXTT0=
EXTT1=
EXTT2=
EXTT3=
EXTT4=
EXTT5=
EXTT6=
EXTT7=
EXTT8=
EXTT9=
EXTT10=
PLAYORDER=
